<?xml version="1.0" standalone="no"?>
<!DOCTYPE svg PUBLIC "-//W3C//DTD SVG 20010904//EN"
 "http://www.w3.org/TR/2001/REC-SVG-20010904/DTD/svg10.dtd">
<svg version="1.0" xmlns="http://www.w3.org/2000/svg"
 width="162.000000pt" height="156.000000pt" viewBox="0 0 162.000000 156.000000"
 preserveAspectRatio="xMidYMid meet">
<metadata>
Created by potrace 1.10, written by Peter Selinger 2001-2011
</metadata>
<g transform="translate(0.000000,156.000000) scale(0.100000,-0.100000)"
fill="#000000" stroke="none">
<path d="M265 1379 c-59 -23 -111 -77 -125 -131 -7 -24 -10 -226 -8 -561 l3
-523 27 -41 c20 -30 44 -49 93 -72 l65 -31 482 0 481 0 64 31 c67 33 95 63
118 130 21 59 22 1003 1 1063 -19 54 -59 102 -109 128 -42 23 -44 23 -542 25
-478 2 -502 1 -550 -18z m1067 -83 c15 -10 37 -33 48 -51 19 -31 20 -48 20
-536 0 -477 -1 -506 -19 -533 -10 -15 -32 -37 -47 -47 -27 -18 -56 -19 -531
-19 -561 0 -541 -2 -583 71 -19 36 -20 51 -20 528 0 465 1 494 19 529 20 39
50 63 91 74 14 3 243 5 510 5 454 -2 487 -3 512 -21z"/>
<path d="M504 1226 c-3 -8 -4 -23 -2 -33 3 -17 23 -18 300 -21 l298 -2 6 24
c3 14 3 30 -1 35 -4 7 -105 11 -301 11 -247 0 -296 -2 -300 -14z"/>
<path d="M320 710 l0 -301 28 3 27 3 0 295 0 295 -27 3 -28 3 0 -301z"/>
<path d="M1255 997 c-3 -7 -4 -140 -3 -297 l3 -285 28 -3 c15 -2 27 1 27 7 0
6 0 137 0 291 0 154 0 285 0 290 0 15 -50 12 -55 -3z"/>
<path d="M508 243 c-6 -7 -7 -24 -4 -38 l6 -25 289 0 c306 0 318 2 309 47 -3
17 -24 18 -296 23 -226 4 -296 2 -304 -7z"/>
</g>
</svg>
