<?xml version="1.0" standalone="no"?>
<!DOCTYPE svg PUBLIC "-//W3C//DTD SVG 20010904//EN"
 "http://www.w3.org/TR/2001/REC-SVG-20010904/DTD/svg10.dtd">
<svg version="1.0" xmlns="http://www.w3.org/2000/svg"
 width="224.000000pt" height="152.000000pt" viewBox="0 0 224.000000 152.000000"
 preserveAspectRatio="xMidYMid meet">
<metadata>
Created by potrace 1.10, written by Peter Selinger 2001-2011
</metadata>
<g transform="translate(0.000000,152.000000) scale(0.100000,-0.100000)"
fill="#000000" stroke="none">
<path d="M149 1316 c-2 -2 -4 -265 -3 -583 l1 -578 581 -3 582 -2 0 122 c0
147 -18 151 -22 5 l-3 -98 -558 -2 -557 -2 0 563 0 562 560 0 560 0 0 -105 c0
-63 4 -105 10 -105 6 0 10 45 10 115 l0 115 -578 0 c-318 0 -581 -2 -583 -4z"/>
<path d="M449 801 c-36 -36 -37 -70 -3 -110 26 -32 72 -41 103 -22 23 15 3 30
-33 24 -29 -4 -37 -1 -51 21 -14 22 -16 32 -7 51 13 28 56 43 76 26 11 -9 15
-8 20 5 16 43 -63 46 -105 5z"/>
<path d="M613 815 c-32 -22 -43 -65 -28 -102 37 -87 159 -61 159 34 0 65 -77
105 -131 68z m87 -35 c24 -24 25 -38 4 -68 -30 -43 -94 -21 -94 33 0 53 52 73
90 35z"/>
<path d="M773 745 c-1 -79 0 -85 19 -85 18 0 19 5 13 55 -4 31 -3 55 2 55 5 0
21 -25 36 -55 17 -36 33 -55 44 -55 16 0 18 11 20 85 3 76 1 85 -15 85 -16 0
-18 -7 -14 -56 6 -68 -6 -66 -43 7 -16 30 -32 49 -43 49 -15 0 -17 -12 -19
-85z"/>
<path d="M940 745 c0 -68 3 -85 15 -85 10 0 15 15 17 58 l3 57 33 -57 c48 -84
62 -78 62 27 0 72 -2 85 -16 85 -14 0 -16 -8 -11 -55 3 -30 3 -55 -1 -55 -4 0
-20 25 -37 55 -19 35 -36 55 -47 55 -16 0 -18 -10 -18 -85z"/>
<path d="M1110 745 l0 -85 55 0 c42 0 55 3 55 15 0 11 -11 15 -40 15 -33 0
-40 3 -40 20 0 16 7 20 30 20 20 0 30 5 30 15 0 10 -10 15 -30 15 -24 0 -30 4
-30 21 0 19 5 21 40 17 33 -3 40 0 40 14 0 15 -9 18 -55 18 l-55 0 0 -85z"/>
<path d="M1265 805 c-53 -52 -16 -145 57 -145 39 0 63 13 54 29 -5 7 -20 9
-40 5 -24 -4 -38 -1 -49 11 -40 40 -4 102 52 90 24 -5 31 -3 31 8 0 35 -72 36
-105 2z"/>
<path d="M1390 811 c0 -14 6 -17 25 -13 25 4 25 4 25 -67 0 -56 3 -71 15 -71
12 0 15 14 15 70 0 68 1 70 25 70 16 0 25 6 25 15 0 12 -14 15 -65 15 -57 0
-65 -2 -65 -19z"/>
<path d="M1555 805 c-53 -53 -16 -145 58 -145 75 0 110 97 53 146 -36 31 -80
31 -111 -1z m95 -25 c24 -24 25 -38 4 -68 -18 -26 -50 -28 -76 -5 -22 20 -23
51 -1 75 21 24 48 23 73 -2z"/>
<path d="M1745 805 c-54 -53 -16 -145 58 -145 41 0 60 19 55 56 -4 39 -28 43
-28 5 0 -26 -4 -31 -24 -31 -51 0 -74 60 -37 94 14 13 28 16 49 11 36 -7 51 9
23 24 -33 18 -70 12 -96 -14z"/>
<path d="M1890 745 l0 -85 55 0 c42 0 55 3 55 15 0 11 -11 15 -40 15 -33 0
-40 3 -40 20 0 16 7 20 30 20 20 0 30 5 30 15 0 10 -10 15 -30 15 -24 0 -30 4
-30 21 0 19 5 21 40 17 33 -3 40 0 40 14 0 15 -9 18 -55 18 l-55 0 0 -85z"/>
<path d="M2030 745 c0 -68 3 -85 15 -85 10 0 15 15 17 58 l3 57 33 -57 c47
-82 60 -77 64 27 3 78 1 85 -16 85 -17 0 -18 -6 -13 -55 3 -30 3 -55 -1 -55
-4 0 -20 25 -37 55 -19 35 -36 55 -47 55 -16 0 -18 -10 -18 -85z"/>
</g>
</svg>
